<?xml version="1.0" standalone="no"?>
<!DOCTYPE svg PUBLIC "-//W3C//DTD SVG 20010904//EN"
 "http://www.w3.org/TR/2001/REC-SVG-20010904/DTD/svg10.dtd">
<svg version="1.0" xmlns="http://www.w3.org/2000/svg"
 width="936.000000pt" height="1280.000000pt" viewBox="0 0 936.000000 1280.000000"
 preserveAspectRatio="xMidYMid meet">
<metadata>
Created by potrace 1.15, written by Peter Selinger 2001-2017
</metadata>
<g transform="translate(0.000000,1280.000000) scale(0.100000,-0.100000)"
fill="#000000" stroke="none">
<path d="M5092 12720 c-350 -72 -580 -167 -826 -339 -49 -34 -150 -93 -225
-130 -75 -37 -165 -86 -201 -107 -36 -22 -128 -69 -205 -104 -134 -62 -144
-69 -236 -160 -96 -94 -97 -96 -100 -148 -5 -65 2 -78 38 -74 50 5 97 -41 158
-158 30 -58 64 -121 75 -140 37 -67 98 -205 114 -261 15 -53 22 -62 117 -140
123 -102 130 -106 228 -126 100 -20 113 -27 84 -48 -19 -14 -22 -22 -17 -59 5
-34 1 -53 -24 -102 -65 -129 -86 -302 -80 -649 5 -232 6 -243 35 -344 l31
-105 -28 -40 c-37 -53 -122 -140 -183 -189 -45 -36 -78 -86 -100 -152 -6 -17
-13 -190 -17 -390 l-7 -360 -37 -130 c-22 -76 -62 -184 -99 -260 l-62 -130 0
-212 -1 -213 -56 -82 c-126 -188 -179 -286 -184 -340 -2 -22 -17 -78 -34 -126
-120 -348 -160 -480 -160 -533 0 -14 -9 -82 -21 -150 -20 -115 -20 -135 -9
-284 6 -88 20 -210 31 -272 31 -182 19 -386 -28 -498 -14 -33 -28 -75 -30 -93
-6 -40 -47 -64 -158 -91 -44 -11 -90 -31 -117 -50 -23 -18 -77 -54 -118 -81
-173 -112 -169 -108 -327 -423 -65 -129 -97 -205 -102 -240 -4 -29 -18 -72
-31 -97 -12 -25 -33 -87 -46 -137 -23 -95 -35 -126 -133 -343 -53 -119 -56
-129 -54 -200 1 -41 4 -93 7 -115 l6 -40 -77 -45 c-42 -25 -102 -60 -132 -77
-33 -19 -70 -33 -90 -33 -49 0 -246 -58 -313 -91 -79 -40 -223 -172 -244 -223
-24 -61 -22 -122 5 -149 20 -21 30 -22 164 -21 199 2 597 20 627 29 14 4 35
17 48 28 22 20 22 20 22 0 0 -11 -7 -42 -15 -69 -20 -65 -19 -189 1 -270 16
-64 16 -66 -5 -92 -39 -50 -49 -77 -65 -182 -36 -229 -40 -277 -27 -308 13
-32 16 -34 140 -87 47 -20 97 -45 113 -56 30 -22 91 -109 103 -150 17 -55 105
-219 146 -273 97 -128 173 -185 247 -186 17 0 32 -4 32 -10 0 -5 11 -10 25
-10 25 0 65 31 65 50 0 16 46 12 102 -10 29 -11 76 -23 104 -26 47 -6 53 -4
88 27 33 28 40 31 58 20 29 -18 144 -16 174 4 49 32 55 54 46 156 -5 52 -16
110 -25 129 -27 59 -129 225 -187 305 -59 82 -68 89 -205 160 -49 25 -100 55
-112 67 l-21 20 46 71 c61 97 89 130 98 116 4 -7 34 -9 93 -4 79 6 93 4 176
-23 138 -46 196 -73 248 -117 75 -63 172 -83 220 -45 l26 20 10 -52 c39 -206
81 -822 62 -920 -18 -101 -60 -220 -111 -323 -68 -133 -76 -198 -34 -275 31
-57 90 -108 158 -136 37 -15 46 -25 56 -57 23 -78 129 -123 273 -116 67 4 79
8 106 33 16 16 36 42 44 58 l14 29 13 -33 c7 -18 24 -50 38 -70 l25 -38 78 0
c77 0 78 0 97 33 11 17 23 55 27 83 6 46 10 52 34 57 47 10 152 87 182 136 24
37 29 56 29 106 0 53 -6 73 -41 139 -70 133 -79 171 -79 329 0 120 -3 144 -19
171 -10 17 -29 65 -41 106 -11 41 -28 93 -37 115 -16 40 -17 57 -39 608 l-7
157 70 0 c130 0 325 74 437 164 41 34 56 41 60 30 4 -11 25 -14 87 -14 98 0
164 -24 444 -160 166 -80 183 -91 214 -135 40 -56 103 -99 173 -116 l50 -13
-6 -41 c-3 -22 -10 -69 -16 -105 -13 -88 -13 -340 1 -379 14 -39 34 -40 57 -1
16 25 21 28 35 17 13 -10 16 -39 19 -157 4 -143 5 -146 44 -240 53 -125 125
-225 189 -263 45 -26 54 -28 124 -23 42 3 147 5 233 5 l158 -1 27 31 c21 22
32 28 43 21 25 -16 102 -11 146 9 54 25 111 99 119 156 23 148 -66 341 -255
555 -75 84 -83 97 -138 214 -55 115 -56 136 -7 136 12 0 30 9 40 20 14 15 31
20 72 20 44 0 58 5 78 25 22 21 25 33 25 98 0 63 -4 79 -28 118 -33 51 -78 91
-136 121 -22 11 -65 39 -94 62 -30 22 -62 45 -72 50 -29 16 -34 276 -9 425 27
161 66 280 101 309 41 34 71 93 108 207 18 55 47 129 65 165 68 136 77 183 85
435 7 220 9 233 36 305 27 71 29 83 29 230 -1 141 -3 159 -24 202 -17 36 -36
56 -77 80 l-54 33 0 129 c0 91 6 154 19 215 11 47 36 172 56 276 20 105 42
202 50 216 8 15 20 51 26 80 8 36 24 68 49 99 21 25 52 70 69 101 39 69 143
359 166 459 9 41 21 85 26 98 5 13 18 79 29 147 24 151 26 346 4 460 -30 162
-44 497 -25 590 5 22 14 67 21 100 6 33 26 101 43 150 l32 90 -2 279 c-3 324
-15 487 -43 579 -24 77 -93 175 -144 202 l-34 19 -6 115 c-4 64 -12 145 -18
181 -19 115 -104 331 -200 511 -50 93 -94 184 -97 202 -10 45 4 119 33 183 37
80 46 202 46 606 0 320 2 356 21 430 11 45 29 98 40 119 10 21 19 45 19 54 0
27 18 7 25 -28 4 -17 23 -62 41 -99 19 -37 57 -124 86 -195 l51 -128 7 -180
c12 -287 34 -344 119 -300 55 28 61 58 61 326 l0 242 61 116 c68 129 84 154
145 226 23 28 64 93 90 145 49 95 49 95 48 190 -1 133 -20 174 -105 225 -35
21 -86 55 -114 75 -27 21 -77 45 -110 55 -33 9 -78 28 -100 41 -22 13 -60 30
-83 38 -100 36 -333 203 -427 307 -40 44 -157 139 -198 161 -44 23 -221 75
-282 83 -61 8 -188 31 -275 50 -245 54 -272 56 -635 61 -318 3 -359 2 -443
-16z m1738 -1001 c0 -6 -4 -7 -10 -4 -5 3 -10 11 -10 16 0 6 5 7 10 4 6 -3 10
-11 10 -16z m-150 -84 c0 -3 -9 -5 -20 -5 -11 0 -20 7 -20 15 0 13 4 14 20 5
11 -6 20 -13 20 -15z m200 -45 c0 -5 -4 -10 -10 -10 -5 0 -10 5 -10 10 0 6 5
10 10 10 6 0 10 -4 10 -10z m-116 -46 c3 -9 6 -26 6 -40 0 -22 -2 -23 -27 -12
-16 7 -36 19 -46 27 -17 15 -17 16 -1 28 24 18 61 16 68 -3z m-330 -899 l39
-35 -31 0 c-17 0 -47 10 -67 21 -33 20 -34 22 -18 35 26 19 34 17 77 -21z"/>
</g>
</svg>
